HIERARCHY
ROOT joint_Root
{
	OFFSET 0.0 0.0 0.0
	CHANNELS 6 Xposition Yposition Zposition Zrotation Xrotation Yrotation 
	JOINT Hips
	{
		OFFSET 4.5925 91.4895 -427.239
		CHANNELS 6 Xposition Yposition Zposition Zrotation Xrotation Yrotation 
		JOINT Spine
		{
			OFFSET 15.7357 0.0 0.0
			CHANNELS 6 Xposition Yposition Zposition Zrotation Xrotation Yrotation 
			JOINT Chest
			{
				OFFSET 8.98455 -0.406207 0.0
				CHANNELS 6 Xposition Yposition Zposition Zrotation Xrotation Yrotation 
				JOINT Neck
				{
					OFFSET 16.3773 0.0 0.0
					CHANNELS 6 Xposition Yposition Zposition Zrotation Xrotation Yrotation 
					JOINT Head
					{
						OFFSET 6.45672 0.0 0.0
						CHANNELS 6 Xposition Yposition Zposition Zrotation Xrotation Yrotation 
						End Site
						{
							OFFSET 0.0 0.0 0.0
						}
					}
				}
				JOINT Shoulder_L
				{
					OFFSET 12.9942 -0.242716 4.98039
					CHANNELS 6 Xposition Yposition Zposition Zrotation Xrotation Yrotation 
					JOINT UpperArm_L
					{
						OFFSET 5.34809 0.0 0.0
						CHANNELS 6 Xposition Yposition Zposition Zrotation Xrotation Yrotation 
						JOINT LowerArm_L
						{
							OFFSET 24.3286 1.87007e-05 0.0
							CHANNELS 6 Xposition Yposition Zposition Zrotation Xrotation Yrotation 
							JOINT Hand_L
							{
								OFFSET 22.2916 0.0 0.0
								CHANNELS 6 Xposition Yposition Zposition Zrotation Xrotation Yrotation 
								End Site
								{
									OFFSET 0.0 0.0 0.0
								}
							}
						}
					}
				}
				JOINT Shoulder_R
				{
					OFFSET 12.9945 -0.242716 -4.98039
					CHANNELS 6 Xposition Yposition Zposition Zrotation Xrotation Yrotation 
					JOINT UpperArm_R
					{
						OFFSET -5.34813 0.0 0.0
						CHANNELS 6 Xposition Yposition Zposition Zrotation Xrotation Yrotation 
						JOINT LowerArm_R
						{
							OFFSET -24.3289 0.000322201 0.0
							CHANNELS 6 Xposition Yposition Zposition Zrotation Xrotation Yrotation 
							JOINT Hand_R
							{
								OFFSET -22.2915 -0.000108084 0.0
								CHANNELS 6 Xposition Yposition Zposition Zrotation Xrotation Yrotation 
								End Site
								{
									OFFSET 0.0 0.0 0.0
								}
							}
						}
					}
				}
			}
		}
		JOINT UpperLeg_L
		{
			OFFSET -2.19248 -6.46944 0.0
			CHANNELS 6 Xposition Yposition Zposition Zrotation Xrotation Yrotation 
			JOINT LowerLeg_L
			{
				OFFSET 39.0811 0.0 -1.23785e-05
				CHANNELS 6 Xposition Yposition Zposition Zrotation Xrotation Yrotation 
				JOINT Foot_L
				{
					OFFSET 40.9854 0.0 -1.26872e-05
					CHANNELS 6 Xposition Yposition Zposition Zrotation Xrotation Yrotation 
					JOINT Toes_L
					{
						OFFSET 11.7543 0.0 0.0
						CHANNELS 6 Xposition Yposition Zposition Zrotation Xrotation Yrotation 
						End Site
						{
							OFFSET 0.0 0.0 0.0
						}
					}
				}
			}
		}
		JOINT UpperLeg_R
		{
			OFFSET -2.19251 6.46944 0.0
			CHANNELS 6 Xposition Yposition Zposition Zrotation Xrotation Yrotation 
			JOINT LowerLeg_R
			{
				OFFSET -39.0811 -0.00228153 -0.0401928
				CHANNELS 6 Xposition Yposition Zposition Zrotation Xrotation Yrotation 
				JOINT Foot_R
				{
					OFFSET -40.9854 0.0 0.0
					CHANNELS 6 Xposition Yposition Zposition Zrotation Xrotation Yrotation 
					JOINT Toes_R
					{
						OFFSET -11.7543 0.0 0.0
						CHANNELS 6 Xposition Yposition Zposition Zrotation Xrotation Yrotation 
						End Site
						{
							OFFSET 0.0 0.0 0.0
						}
					}
				}
			}
		}
	}
}
MOTION
Frames:	4
Frame Time:	0.0333333
0.000000 0.000000 0.000000 0.000000 0.000000 -0.000000 -2.389740 90.718200 -6.220770 88.187300 0.667492 11.692000 15.735700 0.000005 -0.000001 87.183700 74.053300 -88.590100 8.984550 -0.406207 -0.000000 24.076000 -1.715990 -2.463320 16.377300 -0.000001 -0.000001 14.105700 -5.062210 1.535130 6.456720 -0.000001 -0.000000 -11.663200 -4.018030 -3.969800 12.994200 -0.242716 4.980390 -91.190200 6.651050 -79.830400 5.348090 -0.000007 -0.000001 -52.736100 31.543300 -32.624000 24.328600 0.000019 0.000005 10.329300 22.991700 -25.014400 22.291600 -0.000001 0.000005 11.104400 5.247110 1.508910 12.994500 -0.242716 -4.980390 89.510900 2.589170 -79.298400 -5.348130 -0.000001 -0.000004 -73.171600 -10.817200 -72.098200 -24.328900 0.000322 -0.000009 15.020900 -5.142310 -108.470000 -22.291500 -0.000108 -0.000004 31.217600 5.325170 -0.645233 -2.192480 -6.469440 -0.000000 -172.159000 -12.609300 -4.927560 39.081100 -0.000007 -0.000012 -0.148175 0.227343 33.095400 40.985400 -0.000006 -0.000013 -0.589523 6.376890 -66.053900 11.754300 -0.000000 0.000003 -0.000156 -0.001502 -16.634600 -2.192510 6.469440 -0.000001 175.707000 26.807200 178.333000 -39.081100 -0.002282 -0.040193 -0.167038 0.278269 31.472300 -40.985400 0.000008 0.000006 5.282350 14.479000 -67.837000 -11.754300 -0.000006 -0.000006 -0.002634 -0.036394 -18.053100
0.000000 0.000000 0.000000 0.000000 0.000000 -0.000000 -2.379570 90.715600 -6.187740 88.200200 0.621507 11.684700 15.735700 0.000005 -0.000001 87.147900 74.061000 -88.556000 8.984550 -0.406207 -0.000000 24.059600 -1.734590 -2.462790 16.377300 -0.000001 -0.000001 14.090500 -5.072350 1.542290 6.456720 -0.000001 -0.000000 -11.672400 -4.007820 -3.973080 12.994200 -0.242716 4.980390 -91.192400 6.662950 -79.830300 5.348090 -0.000007 -0.000001 -52.656500 31.503200 -32.675600 24.328600 0.000019 0.000005 10.367000 23.011600 -25.078300 22.291600 -0.000001 0.000005 11.140100 5.244660 1.573540 12.994500 -0.242716 -4.980390 89.509000 2.594030 -79.279000 -5.348130 -0.000001 -0.000004 -73.265600 -10.617000 -72.197400 -24.328900 0.000322 -0.000009 15.137200 -5.156910 -108.380000 -22.291500 -0.000108 -0.000004 31.282200 5.321070 -0.526847 -2.192480 -6.469440 -0.000000 -172.176000 -12.639900 -4.906490 39.081100 -0.000007 -0.000012 -0.143879 0.220651 33.107200 40.985400 -0.000006 -0.000013 -0.586472 6.348630 -66.090000 11.754300 -0.000000 0.000003 -0.000160 -0.001534 -16.635800 -2.192510 6.469440 -0.000001 175.684000 26.787600 178.335000 -39.081100 -0.002282 -0.040193 -0.166851 0.277751 31.491700 -40.985400 0.000008 0.000006 5.281060 14.504400 -67.863100 -11.754300 -0.000006 -0.000006 -0.002822 -0.038577 -18.141900
0.000000 0.000000 0.000000 0.000000 0.000000 -0.000000 -2.374550 90.716200 -6.168440 88.203600 0.587997 11.662200 15.735700 0.000005 -0.000001 87.126700 74.069100 -88.530400 8.984550 -0.406207 -0.000000 24.042900 -1.744470 -2.452240 16.377300 -0.000001 -0.000001 14.048100 -5.084010 1.573590 6.456720 -0.000001 -0.000000 -11.675600 -4.031180 -3.978090 12.994200 -0.242716 4.980390 -91.186800 6.659200 -79.871500 5.348090 -0.000007 -0.000001 -52.600600 31.464300 -32.728300 24.328600 0.000019 0.000005 10.302700 22.864800 -25.071500 22.291600 -0.000001 0.000005 11.011200 5.247140 1.508200 12.994500 -0.242716 -4.980390 89.507400 2.591230 -79.232700 -5.348130 -0.000001 -0.000004 -73.409400 -10.379500 -72.304600 -24.328900 0.000322 -0.000009 15.063200 -5.116940 -108.335000 -22.291500 -0.000108 -0.000004 31.264800 5.323670 -0.601987 -2.192480 -6.469440 -0.000000 -172.172000 -12.665500 -4.907590 39.081100 -0.000007 -0.000012 -0.147416 0.226121 33.101900 40.985400 -0.000006 -0.000013 -0.593427 6.337300 -66.101100 11.754300 -0.000000 0.000003 -0.000163 -0.001559 -16.636700 -2.192510 6.469440 -0.000001 175.694000 26.763900 178.321000 -39.081100 -0.002282 -0.040193 -0.166974 0.277971 31.489900 -40.985400 0.000008 0.000006 5.280250 14.505900 -67.872900 -11.754300 -0.000006 -0.000006 -0.002690 -0.037039 -18.079300
0.000000 0.000000 0.000000 0.000000 0.000000 -0.000000 -2.370990 90.717100 -6.149330 88.205300 0.520044 11.665600 15.735700 0.000005 -0.000001 87.114700 74.071300 -88.518000 8.984550 -0.406207 -0.000000 24.038100 -1.750620 -2.450080 16.377300 -0.000001 -0.000001 14.043700 -5.112230 1.605390 6.456720 -0.000001 -0.000000 -11.697300 -4.058960 -3.951500 12.994200 -0.242716 4.980390 -91.187300 6.671420 -79.885200 5.348090 -0.000007 -0.000001 -52.519500 31.477900 -32.813500 24.328600 0.000019 0.000005 10.303900 22.901200 -25.041000 22.291600 -0.000001 0.000005 11.074400 5.244200 1.585550 12.994500 -0.242716 -4.980390 89.519400 2.534580 -79.259200 -5.348130 -0.000001 -0.000004 -73.567300 -10.189900 -72.353700 -24.328900 0.000322 -0.000009 15.248900 -5.169290 -108.289000 -22.291500 -0.000108 -0.000004 31.309600 5.320760 -0.517847 -2.192480 -6.469440 -0.000000 -172.174000 -12.688400 -4.875040 39.081100 -0.000007 -0.000012 -0.143312 0.219841 33.100100 40.985400 -0.000006 -0.000013 -0.597374 6.297620 -66.123300 11.754300 -0.000000 0.000003 -0.000159 -0.001526 -16.635500 -2.192510 6.469440 -0.000001 175.693000 26.722500 178.333000 -39.081100 -0.002282 -0.040193 -0.164635 0.274208 31.484800 -40.985400 0.000008 0.000006 5.281560 14.529500 -67.877700 -11.754300 -0.000006 -0.000006 -0.002661 -0.036709 -18.065900
